<?xml version="1.0" encoding="UTF-8"?>
<svg id="Isolation_Mode" data-name="Isolation Mode" xmlns="http://www.w3.org/2000/svg" viewBox="0 0 300 300">
  <defs>
    <style>
      .cls-1 {
        fill: #fff;
      }

      .cls-1, .cls-2 {
        opacity: .2;
      }

      .cls-3 {
        fill: none;
      }

      .cls-4 {
        fill: #083a66;
      }

      .cls-5 {
        fill: #828383;
      }
    </style>
  </defs>
  <rect class="cls-3" width="300" height="300"/>
  <g>
    <g>
      <path class="cls-5" d="M190.35,108.65c3.31-5.86,5.1-12.43,5.1-19.26,0-23.08-20.43-41.86-45.55-41.86s-45.54,18.78-45.54,41.86c0,6.83,1.79,13.39,5.1,19.26h80.9Z"/>
      <path class="cls-4" d="M149.89,50.53c22.97,0,41.66,17.18,41.66,38.29,0,6.24-1.64,12.25-4.66,17.61h-73.99c-3.02-5.36-4.66-11.37-4.66-17.61,0-21.11,18.69-38.29,41.65-38.29M149.89,43.86c-26.64,0-48.32,20.17-48.32,44.96,0,7.26,1.91,14.48,5.52,20.89l1.91,3.39h81.78l1.91-3.39c3.61-6.4,5.52-13.63,5.52-20.89,0-24.79-21.68-44.96-48.33-44.96h0Z"/>
      <path class="cls-5" d="M106.44,155.16l-.1-1.64c-.38-6.47-2.35-13.25-4.25-19.8-.61-2.08-1.21-4.17-1.77-6.25-1.53-5.68-1.88-17.49-1.88-19.43,0-24.91,20.2-41.01,51.45-41.01s51.46,16.1,51.46,41.01c0,1.94-.35,13.75-1.87,19.42-.56,2.09-1.17,4.17-1.78,6.26-1.91,6.55-3.88,13.33-4.25,19.8l-.1,1.64h-86.91Z"/>
      <path class="cls-4" d="M149.89,68.77c26.46,0,49.72,12.82,49.72,39.27,0,1.61-.32,13.41-1.81,18.97-2.38,8.84-5.58,17.69-6.09,26.4h-83.63c-.51-8.71-3.7-17.56-6.09-26.4-1.5-5.57-1.81-17.36-1.81-18.97,0-26.45,23.26-39.27,49.71-39.27M149.89,62.11c-33.72,0-56.38,18.46-56.38,45.94,0,.13.15,13.68,2.04,20.71.58,2.14,1.2,4.28,1.8,6.35,1.91,6.58,3.72,12.79,4.07,18.71l.37,6.28h96.21l.37-6.28c.35-5.92,2.15-12.13,4.07-18.71.6-2.07,1.23-4.21,1.8-6.35,1.89-7.02,2.04-20.58,2.04-20.71,0-27.48-22.66-45.94-56.39-45.94h0Z"/>
      <path class="cls-5" d="M204.61,221.05c-29.91-18.79-32.51-42.26-33.36-51.61h18.81l.94-1.75.65-1.2c2.01-3.67,3.33-6.1,3.33-11.55v-1.8l-1.5-.99-19.86-13.1c9.15-7.24,14.54-18.27,14.54-30.02,0-1.26-12.18-17.8-38.28-17.8s-38.26,16.53-38.26,17.8c0,11.75,5.39,22.78,14.54,30.03l-19.85,13.09-1.5.99v1.8c0,5.45,1.32,7.87,3.33,11.54l.65,1.2.94,1.75h18.81c-.83,9.34-3.38,32.77-33.37,51.61-13.42,8.43-21.11,24.45-21.11,43.95v3.33h151.64v-3.33c0-19.5-7.7-35.52-21.11-43.95Z"/>
      <path class="cls-1" d="M124.91,154.94c1.08-7.42,6.99-15.63,7.15-15.77l-27.95,15.77h20.79Z"/>
      <path class="cls-1" d="M77.41,265c7.26-23.83,17.51-26.93,36.43-40.69,12.56-9.13,14.25-36.74,14.25-36.74.3-1.45-6.4,11.1-13.54,17.32-2.34,2.04-18.29,13.07-25.11,20.28-11.84,12.52-13.41,44.38-12.02,39.83Z"/>
      <path class="cls-2" d="M191.93,212.77c-17.93-12.54-19.15-36.99-20.28-42.58l18.07-.03,6.46-14.93s-18.9-15.38-28.17-15.76c2.01,2.24,14.26,17.12-.44,26.65h-59.02l.75,4.17,19.08-.03s22.07,22.37,40.35,39.61c17.55,16.55,44.18,18.85,44.18,18.85,0,0-11.85-9.56-20.97-15.94Z"/>
      <path class="cls-2" d="M187.37,118.04c.43-3.62.55-6.95.43-10.03-.66-.04-1.34-.25-2.01-.7-2.7-1.84-5.17-3.9-7.44-6.17.61,7.12-.93,14.54-5.62,21.15-9.2,12.98-27.17,16.88-27.17,16.88h22.17s.12.12.27.28l4.5.06s13.68-11.4,14.87-21.47Z"/>
      <path class="cls-4" d="M149.9,92.99c26.11,0,34.94,14.79,34.94,16.06,0,11.56-5.72,22.36-15.29,28.89l-1.81,1.24,23.92,15.77c0,5.09-1.21,6.75-3.59,11.17h-20.5l.18,1.66c.81,7.61,1.33,34.89,35.09,56.1,12.43,7.8,19.55,22.79,19.55,41.12H77.41c0-18.33,7.13-33.32,19.55-41.12,33.85-21.26,34.31-48.51,35.1-56.11l.17-1.66h-20.5c-2.38-4.41-3.58-6.07-3.58-11.17l23.91-15.77-1.81-1.24c-9.57-6.53-15.29-17.33-15.29-28.89,0-1.26,8.82-16.06,34.94-16.06M149.9,86.32c-15.42,0-25.42,4.77-31.1,8.77-5.06,3.57-10.5,9.45-10.5,13.95,0,11.24,4.54,21.88,12.41,29.64l-16.22,10.7-3,1.98v3.59c0,6.3,1.65,9.32,3.74,13.14l.65,1.19,1.89,3.5h17.1c-1.34,10.39-6.19,29.59-31.44,45.45-14.41,9.05-22.67,26.09-22.67,46.77v6.67h158.31v-6.67c0-20.67-8.26-37.72-22.67-46.77-25.18-15.82-30.06-35.05-31.42-45.45h17.09l1.89-3.5.65-1.19c2.09-3.82,3.74-6.84,3.74-13.14v-3.59l-3-1.98-16.23-10.7c7.87-7.76,12.41-18.39,12.41-29.63,0-4.5-5.44-10.39-10.5-13.95-5.68-4-15.68-8.77-31.1-8.77h0Z"/>
    </g>
    <path class="cls-5" d="M150,47.74h0c5.41,0,9.8,4.39,9.8,9.8v16.3h-19.6v-16.3c0-5.41,4.39-9.8,9.8-9.8Z"/>
    <path class="cls-4" d="M150,50.53c4.03,0,7.29,3.27,7.29,7.29v14.11h-14.59v-14.11c0-4.03,3.27-7.29,7.29-7.29h0M150,43.86c-7.7,0-13.96,6.26-13.96,13.96v20.78h27.92v-20.78c0-7.7-6.26-13.96-13.96-13.96h0Z"/>
  </g>
</svg>