<?xml version="1.0" encoding="UTF-8"?>
<svg id="Isolation_Mode" data-name="Isolation Mode" xmlns="http://www.w3.org/2000/svg" viewBox="0 0 300 300">
  <defs>
    <style>
      .cls-1, .cls-2 {
        opacity: .3;
      }

      .cls-3, .cls-2 {
        fill: #fff;
      }

      .cls-4 {
        fill: none;
      }

      .cls-5 {
        opacity: .15;
      }

      .cls-6 {
        fill: #083a66;
      }

      .cls-7 {
        fill: #828383;
      }
    </style>
  </defs>
  <rect class="cls-4" width="300" height="300"/>
  <g>
    <path class="cls-7" d="M121.79,34.66h-1.38c-4.55,0-9.06,4.13-10.28,9.4l-2.41,11.46c-2.21,5.23-5.9,8.93-11.88,13.87-6.63,5.48-8.72,10.9-10.11,14.49l-.27.69c-1.5,3.82-2.61,7.17-3.6,10.13-2.39,7.17-4.27,12.83-10.17,21.41l-19.41,27.3c-6.02,7.51-5.36,17.94,1.53,23.79,7.01,5.96,24.01,10.49,29.84,10.49,1.16,0,2.83-.13,4.03-1.29,2.63-2.54,4.43-5.36,6.18-8.09,3.84-6,6.61-10.34,16.54-10.38,14.56-.06,27.15-13.26,33.19-19.6l.06-.06.05-.06,3.63-4.2c2.43,3.89,5.23,10.21,3.33,16.84-.79,2.77-2.05,5.39-3.82,7.99-3.43,5-8.45,9.38-13.37,13.36l-.32.26c-12.54,10.15-33.25,26.92-36.81,50.47-22.2,6.07-22.16,21.55-22.12,39.38v2.69s0,3.33,0,3.33h169.27v-6.01c.05-17.81.09-33.31-22.13-39.38.69-2.65,1.66-6.06,2.73-9.83,4.39-15.4,10.4-36.5,10.4-50.33,0-32.6-10.31-59.96-29.82-79.12-16.11-15.83-37.82-25.52-61.26-27.39l-20.66-20.63-.98-.98h0Z"/>
    <path class="cls-5" d="M177.11,269.81h26.14l-7.37-13.99-16.03-17.91-21.18-21.18-16.79,9.57,8.86,13.26c7.3,10.93,18.99,28.5,18.99,28.5l7.39,1.74Z"/>
    <path class="cls-5" d="M171.31,129.55c-4.6,0-8.33,3.73-8.33,8.33v49.69c-.22,5.66-4.71,5.43-5.87,4.97-2.61-1.03-4.53-3.29-5.3-5.99-.81-2.84-2.31-6.74-4.74-8.48-4.35-3.11-10.36-3.21-14.79-.22-7.09,4.79-7.77,14.5-2.04,20.24,5.12,5.12,13.43,5.12,18.56,0,.15-.15.28-.31.42-.46l2.52,2.52-6.91,6.91c-1.8,1.8-1.8,4.72,0,6.52l4.78,4.78,13.38-13.38v21.07c1.91,1.46,3.72,3.49,4.65,9.58,13.71,11.78,22.45,19.3,36.16,31.08h25.51c.16,0,.32.02.48.02v-137.19h-58.46Z"/>
    <path class="cls-2" d="M159.52,231.59c71.79,0,79.24,7.92,79.24,7.92h.98c-3.22-16.96-40.82-18.83-40.82-18.83h-78.51s-38.94,1.34-41.1,18.83h.98s7.45-7.92,79.23-7.92Z"/>
    <g class="cls-1">
      <path class="cls-3" d="M116.07,67.93c13.43-8.34,4.34-29.94,4.34-29.94-3.72,0-7.27,2.21-8.29,6.65l-2.43,11.53c-2.35,5.63-6.19,9.51-12.43,14.67-6.27,5.18-8.19,10.14-9.59,13.76l-.27.7c-1.48,3.77-2.54,6.96-3.57,10.04-2.43,7.3-4.35,13.07-10.37,21.83l-19.4,27.3c-.26.25-.5.52-.74.78-6.27,6.47-1.63,12.91-1.63,12.91,0,0,31.71-39.09,35.82-44.57,7.48-9.98,2.79-29.63,28.58-45.66Z"/>
    </g>
    <path class="cls-6" d="M117.96,83.86c-8.71,3.56-11.07,18.49-11.07,18.49,8.47-7.37,12.55,1.08,21-5.61,7.05-5.57-1.38-16.38-9.93-12.89Z"/>
    <g>
      <g>
        <path class="cls-5" d="M158.11,111.02c-3.03,5.82-10.54,17.62-10.54,17.62,0,0-.78,2.39-1.75,5.78,0,0,3.47-.4,4.11,10.64.17,2.88,1.56,12.93,3.34,8.64,5.12-12.39,8.64-27.4,8.56-32.49-.08-5.09-.69-16-3.72-10.18Z"/>
        <path class="cls-5" d="M141.94,59.5s67.99,8.44,67.99,73.51c0,43.56-28.98,55.73-36.62,85.03,0,0,32.22.26,46.47,6.99,0,0,15.29-41.4,15.29-65.94s-19.06-101.53-93.14-99.59Z"/>
        <path class="cls-5" d="M116.87,154.58c-15.19-7.45-19.02-16.32-24.86,1.2-5.66,16.97-14.25,19.88-8.47,21.64,5.78,1.75,12.89-17.43,17.95-17.74,5.05-.31,21.06-2.31,15.38-5.09Z"/>
      </g>
      <path class="cls-6" d="M120.41,37.99l21.53,21.51c42.11,2.84,89.22,33.49,89.22,103.28,0,18.54-11.72,52.49-13.81,62.61,23.98,5.08,22.81,19.38,22.81,39.61H77.56c0-19.94-1.14-34.12,21.8-39.38,2.36-23.61,23.89-40.85,36.21-50.82,5.73-4.64,10.58-9.06,14.02-14.07,1.89-2.76,3.35-5.7,4.28-8.96,3.03-10.61-3.82-20.14-6.3-23.13l-6.39,7.39c-6.43,6.74-17.89,18.51-30.8,18.57-16.74.07-17.14,11.81-25.02,19.4-.25.24-.84.35-1.71.35-5.45,0-21.53-4.47-27.69-9.7-5.37-4.56-6.06-13.03-1.03-19.24l19.5-27.43c8.71-12.66,9.1-19.42,14.12-32.21,1.41-3.6,3.04-8.57,9.4-13.83,6.36-5.25,10.47-9.36,12.96-15.45l2.46-11.71c.83-3.59,3.99-6.81,7.03-6.81M123.17,31.33h-2.76c-6.13,0-11.95,5.15-13.52,11.98v.06s-.03.06-.03.06l-2.33,11.08c-1.97,4.47-5.23,7.7-10.81,12.31-7.3,6.03-9.58,11.94-11.1,15.85l-.26.68c-1.53,3.9-2.66,7.3-3.66,10.29-2.39,7.18-4.12,12.37-9.72,20.53l-19.35,27.22c-7.09,8.92-6.22,21.32,2.03,28.34,7.67,6.52,25.59,11.28,32,11.28,1,0,4.04,0,6.34-2.23,2.91-2.81,4.91-5.93,6.67-8.69,3.63-5.68,5.63-8.81,13.74-8.84,15.98-.07,29.22-13.96,35.59-20.63l.11-.12.11-.12.41-.48c1.17,2.95,1.84,6.47.82,10.02-.69,2.43-1.8,4.72-3.37,7.02-3.18,4.65-7.99,8.83-12.71,12.66l-.32.26c-12.55,10.16-33.05,26.76-37.64,50.45-22.61,7.2-22.56,24.87-22.52,41.99v2.68s0,6.67,0,6.67h175.94v-9.34c.05-16.84.09-34.2-21.41-41.63.55-2,1.2-4.27,1.89-6.68,4.44-15.59,10.52-36.95,10.52-51.24,0-70.23-46.25-105.47-92.92-109.73l-19.8-19.77-1.95-1.95h0Z"/>
    </g>
    <path class="cls-6" d="M158.87,221.59c19.63,0,37.06.83,52.26,2.76,3.21.41,6.07.94,8.61,1.59l1.11-6.58c-2.67-.66-5.62-1.21-8.88-1.62-14.88-1.89-32.26-2.82-53.11-2.82h0c-20.85,0-38.22.92-53.11,2.82-3.43.44-6.52,1.02-9.3,1.73l1.38,6.52c2.58-.67,5.49-1.22,8.77-1.63,15.21-1.94,32.63-2.76,52.26-2.76Z"/>
  </g>
  <g>
    <g>
      <g>
        <path class="cls-7" d="M241.48,266.71h-26.23l-40.18-40.17c-.32-.31-.64-.59-.97-.84l-.68-.52v-89.04c0-5.56,4.52-10.07,10.07-10.07h60.2v140.74l-2.22-.1Z"/>
        <path class="cls-6" d="M241.95,127.81v137.19c-.16,0-.31-.02-.48-.02h-25.51c-13.22-13.22-26.44-26.44-39.67-39.67-.37-.37-.76-.69-1.14-.99v-88.17c0-4.6,3.73-8.33,8.33-8.33h58.46M248.62,121.15h-65.13c-8.27,0-15,6.73-15,15v91.46l2.61,2c.21.16.37.29.49.41l39.67,39.67,1.95,1.95h28.15c.13,0,.23.01.34.02l6.93.27V121.15h0Z"/>
      </g>
      <g>
        <path class="cls-6" d="M248.62,177.09c-17.31-.41-31.66-12.73-35.15-29.09-.53,2.49-.82,5.07-.82,7.71,0,20.05,16.02,36.35,35.97,36.82v-15.44Z"/>
        <path class="cls-6" d="M248.62,220.58c-17.31.41-31.66,12.73-35.15,29.09-.53-2.49-.82-5.07-.82-7.71,0-20.05,16.02-36.35,35.97-36.82v15.44Z"/>
      </g>
      <rect class="cls-6" x="235.12" y="179.5" width="13.56" height="40.81"/>
    </g>
    <g>
      <path class="cls-6" d="M172.59,211.9l21.18,21.18,16.03,17.91,7.37,13.99h-26.14l-15.38-13.78-21.18-21.18,18.12-18.12M172.59,205.23c-1.77,0-3.46.7-4.71,1.95l-18.12,18.12c-1.25,1.25-1.95,2.95-1.95,4.71s.7,3.46,1.95,4.71l21.18,21.18c.09.09.17.17.27.25l15.38,13.78c1.22,1.1,2.81,1.7,4.45,1.7h26.14c2.34,0,4.5-1.22,5.71-3.22s1.28-4.49.19-6.55l-7.37-13.99c-.25-.48-.57-.93-.93-1.34l-16.03-17.91c-.08-.09-.17-.18-.25-.27l-21.18-21.18c-1.25-1.25-2.95-1.95-4.71-1.95h0Z"/>
      <polygon class="cls-7" points="191.03 264.97 217.17 264.97 209.79 250.99 193.77 233.08 172.58 211.9 154.47 230.01 175.65 251.19 191.03 264.97"/>
      <path class="cls-6" d="M162.39,203.34c1.03,0,2.06.39,2.84,1.18l4.16,4.16-18.14,18.14-4.16-4.16c-1.57-1.57-1.57-4.11,0-5.68l12.46-12.46c.78-.78,1.81-1.18,2.84-1.18M162.39,196.67c-2.85,0-5.54,1.11-7.55,3.13l-12.46,12.46c-2.02,2.02-3.13,4.7-3.13,7.55s1.11,5.54,3.13,7.55l4.16,4.16,4.71,4.71,4.71-4.71,18.14-18.14,4.71-4.71-4.71-4.71-4.16-4.16c-2.02-2.02-4.7-3.13-7.55-3.13h0Z"/>
      <path class="cls-7" d="M147.08,222.66l4.16,4.16,18.14-18.14-4.16-4.16c-1.57-1.57-4.11-1.57-5.68,0l-12.46,12.46c-1.57,1.57-1.57,4.11,0,5.68Z"/>
      <g>
        <path class="cls-6" d="M139.99,192.5l11.05,11.05-4.92,4.92-11.05-11.05,4.92-4.92M139.99,183.07l-4.71,4.71-4.92,4.92-4.71,4.71,4.71,4.71,11.05,11.05,4.71,4.71,4.71-4.71,4.92-4.92,4.71-4.71-4.71-4.71-11.05-11.05-4.71-4.71h0Z"/>
        <rect class="cls-7" x="139.58" y="192.67" width="6.96" height="15.63" transform="translate(-99.87 159.88) rotate(-45)"/>
      </g>
      <g>
        <circle class="cls-7" cx="130.81" cy="188.24" r="7.32"/>
        <path class="cls-6" d="M130.81,180.91c1.87,0,3.75.72,5.18,2.15,2.86,2.86,2.86,7.5,0,10.36-1.43,1.43-3.3,2.15-5.18,2.15s-3.75-.72-5.18-2.15c-2.86-2.86-2.86-7.5,0-10.36,1.43-1.43,3.3-2.15,5.18-2.15M130.81,174.25c-3.74,0-7.25,1.46-9.89,4.1-2.64,2.64-4.1,6.16-4.1,9.89s1.46,7.25,4.1,9.89c2.64,2.64,6.16,4.1,9.89,4.1s7.25-1.46,9.89-4.1c5.46-5.46,5.46-14.33,0-19.79-2.64-2.64-6.16-4.1-9.89-4.1h0Z"/>
      </g>
      <path class="cls-6" d="M207.55,267.33c-14.64-14.66-31.89-31.91-46.55-46.55l2.36-2.36c14.66,14.64,31.91,31.89,46.55,46.55l-2.36,2.36Z"/>
    </g>
  </g>
</svg>