<?xml version="1.0" encoding="UTF-8"?>
<svg id="Isolation_Mode" data-name="Isolation Mode" xmlns="http://www.w3.org/2000/svg" viewBox="0 0 300 300">
  <defs>
    <style>
      .cls-1, .cls-2 {
        fill: #fff;
      }

      .cls-1, .cls-3 {
        opacity: .2;
      }

      .cls-4 {
        fill: none;
      }

      .cls-2 {
        opacity: .3;
      }

      .cls-5 {
        fill: #083a66;
      }

      .cls-6 {
        fill: #828383;
      }
    </style>
  </defs>
  <rect class="cls-4" x="0" width="300" height="300"/>
  <g>
    <path class="cls-6" d="M150,52.36c-7.28,0-15.52,1.35-15.93,1.41l-2.42.34-.41,2.41-3.12,28.2h-14.76l-5.29-24.59-.78-2.23h-2.36c-8.81,0-17.16,2.09-24.81,6.21l-1.92,1.03.18,2.17,2.76,33.59v.09s.02.08.02.08c1.63,12.02,7.8,19.5,19.89,23.96-1.68,14.3-9.58,81.49-11.58,97.4-24.19,5.7-24.15,21.57-24.1,39.86v2.71s0,3.33,0,3.33h169.27v-6.04c.05-18.29.1-34.16-24.09-39.86-2-15.91-9.91-83.1-11.58-97.4,12.09-4.46,18.26-11.95,19.89-23.96v-.08s.02-.09.02-.09l2.76-33.59.18-2.17-1.92-1.04c-7.65-4.12-16-6.2-24.81-6.2h-2.36l-.78,2.23-5.29,24.59h-14.76l-3.12-28.2-.41-2.41-2.42-.34c-.42-.06-8.66-1.41-15.93-1.41h0Z"/>
    <path class="cls-1" d="M150,231.59c71.79,0,79.24,7.92,79.24,7.92h.98c-3.22-16.96-40.82-18.83-40.82-18.83h-78.51s-38.94,1.34-41.1,18.83h.98s7.45-7.92,79.23-7.92Z"/>
    <path class="cls-2" d="M100.03,58.3c-17.91,12.27-11.17,58.15-11.17,58.15-11.41-3.68-11.16-52.88-11.16-52.88,0,0,27.43-8.77,22.33-5.27Z"/>
    <path class="cls-2" d="M155.31,54.67c-19.95,3.66-27.71,32.73-27.71,32.73-1.16-10.54,5.87-34.22,5.87-34.22,0,0,27.52.45,21.84,1.49Z"/>
    <path class="cls-2" d="M208.58,60.71c-12.95,6.85-22.91,26.69-22.91,26.69.03-8.69,9.11-31.59,9.11-31.59,0,0,18.63,2.34,13.8,4.9Z"/>
    <path class="cls-3" d="M206.45,121.2c17.7.4,14.55-54.64,14.55-54.64l-10.61-6.73c-2.93,17.58-6.68,44.83-15.27,52.39-7.84,6.91-12.64,8.52-13.84,8.84-2.28-.29-4.73-.56-7.38-.8-24.17-2.2-59.34,4.7-59.34,4.7,0,0,35.63-2.16,53.83,20.7,18.1,22.72,20.03,72.29,20.03,72.29,11.93,2.21,20.81,4.67,20.81,4.67l-11.22-95.77s6.07-5.71,8.42-5.65Z"/>
    <path class="cls-5" d="M102.29,128.51l-.96-6.6c17.78-2.58,37.34-4.32,48.66-4.32s30.68,1.72,48.34,4.28l-.96,6.6c-17.1-2.48-36.58-4.21-47.38-4.21s-30.48,1.75-47.7,4.25Z"/>
    <path class="cls-5" d="M150,55.69c7.13,0,15.48,1.38,15.48,1.38l3.59,30.97h19.94l6.07-26.82c8.3,0,16.04,1.94,23.23,5.81l-2.76,33.58c-1.38,10.23-6.08,17.7-20.21,22.13,0,0,10.73,91.42,12.2,102.45,24.98,4.9,23.77,19.31,23.77,39.81H68.69c0-20.5-1.21-34.91,23.77-39.81,1.47-11.04,12.2-102.45,12.2-102.45-14.12-4.43-18.82-11.89-20.21-22.13l-2.76-33.58c7.19-3.87,14.93-5.81,23.23-5.81l6.07,26.82h19.93l3.59-30.97s8.34-1.38,15.48-1.38M150,49.03c-7.6,0-16.2,1.41-16.57,1.47l-4.96.82-.58,4.99-2.91,25.07h-8.67l-4.9-21.63-1.18-5.19h-5.33c-9.37,0-18.25,2.22-26.39,6.6l-3.84,2.07.36,4.35,2.76,33.58v.17s.04.17.04.17c1.7,12.56,7.81,20.66,19.58,25.68-2.07,17.58-8.76,74.46-11,92.59-24.5,6.83-24.45,24.96-24.41,42.53v2.7s0,6.67,0,6.67h175.94v-9.37c.05-17.57.1-35.7-24.4-42.53-2.24-18.12-8.94-75.01-11-92.59,11.77-5.02,17.88-13.11,19.58-25.68l.02-.17v-.17s2.78-33.58,2.78-33.58l.36-4.35-3.84-2.07c-8.14-4.38-17.02-6.6-26.39-6.6h-5.33l-1.18,5.19-4.9,21.63h-8.67l-2.9-25.07-.58-4.99-4.96-.82c-.36-.06-8.97-1.47-16.57-1.47h0Z"/>
    <path class="cls-5" d="M150,221.59c19.63,0,37.06.83,52.26,2.76,3.21.41,6.07.94,8.61,1.59l1.11-6.58c-2.68-.66-5.63-1.21-8.88-1.62-14.88-1.89-32.26-2.82-53.11-2.82h0c-20.85,0-38.22.92-53.11,2.82-3.43.44-6.52,1.02-9.3,1.73l1.37,6.52c2.58-.67,5.49-1.22,8.77-1.63,15.21-1.94,32.63-2.76,52.26-2.76Z"/>
    <path class="cls-6" d="M85.62,162.86c-11.32,0-20.53-9.21-20.53-20.53s9.21-20.53,20.53-20.53,20.53,9.21,20.53,20.53-9.21,20.53-20.53,20.53Z"/>
    <path class="cls-3" d="M103.25,129.73c-1.74,14.82-3.41,29.64-4.49,44.51,10.24-2.72,17.8-12,17.8-23.1,0-9.4-5.43-17.5-13.31-21.42Z"/>
    <path class="cls-6" d="M85.62,162.86c-11.32,0-20.53-9.21-20.53-20.53s9.21-20.53,20.53-20.53,20.53,9.21,20.53,20.53-9.21,20.53-20.53,20.53Z"/>
    <path class="cls-5" d="M85.62,123.55c10.38,0,18.79,8.41,18.79,18.79s-8.41,18.79-18.79,18.79-18.79-8.41-18.79-18.79,8.41-18.79,18.79-18.79M85.62,116.88c-14.04,0-25.45,11.42-25.45,25.45s11.42,25.45,25.45,25.45,25.45-11.42,25.45-25.45-11.42-25.45-25.45-25.45h0Z"/>
    <path class="cls-6" d="M214.38,162.86c-11.32,0-20.53-9.21-20.53-20.53s9.21-20.53,20.53-20.53,20.53,9.21,20.53,20.53-9.21,20.53-20.53,20.53Z"/>
    <path class="cls-5" d="M214.38,123.55c10.38,0,18.79,8.41,18.79,18.79s-8.41,18.79-18.79,18.79-18.79-8.41-18.79-18.79,8.41-18.79,18.79-18.79M214.38,116.88c-14.04,0-25.45,11.42-25.45,25.45s11.42,25.45,25.45,25.45,25.45-11.42,25.45-25.45-11.42-25.45-25.45-25.45h0Z"/>
    <path class="cls-5" d="M214.22,155.5c-5.43,0-9.84-4.42-9.84-9.84,0-4.52,3.68-8.2,8.2-8.2v3.33c-2.69,0-4.87,2.19-4.87,4.87,0,3.59,2.92,6.51,6.51,6.51,4.71,0,8.55-3.83,8.55-8.55,0-6.12-4.98-11.1-11.1-11.1-7.97,0-15.5,7.53-15.5,15.5h-3.33c0-9.68,9.15-18.83,18.83-18.83,7.96,0,14.44,6.48,14.44,14.44,0,6.55-5.33,11.88-11.88,11.88Z"/>
    <path class="cls-5" d="M85.84,155.5c-6.55,0-11.88-5.33-11.88-11.88,0-7.96,6.48-14.44,14.44-14.44,9.68,0,18.83,9.15,18.83,18.83h-3.33c0-7.97-7.53-15.5-15.5-15.5-6.12,0-11.1,4.98-11.1,11.1,0,4.71,3.84,8.55,8.55,8.55,3.59,0,6.51-2.92,6.51-6.51,0-2.69-2.19-4.87-4.87-4.87v-3.33c4.52,0,8.2,3.68,8.2,8.2,0,5.42-4.41,9.84-9.84,9.84Z"/>
    <rect class="cls-5" x="119.83" y="123.07" width="6.67" height="94.2"/>
    <rect class="cls-5" x="173.5" y="123.07" width="6.67" height="94.2"/>
    <rect class="cls-5" x="146.66" y="123.07" width="6.67" height="92.33"/>
  </g>
</svg>